<?xml version="1.0" encoding="utf-8"?>
<!-- Generator: Adobe Illustrator 16.0.0, SVG Export Plug-In . SVG Version: 6.00 Build 0)  -->
<!DOCTYPE svg PUBLIC "-//W3C//DTD SVG 1.1//EN" "http://www.w3.org/Graphics/SVG/1.1/DTD/svg11.dtd">
<svg version="1.1" id="Layer_1" xmlns="http://www.w3.org/2000/svg" xmlns:xlink="http://www.w3.org/1999/xlink" x="0px" y="0px"
	 width="36px" height="31.792px" viewBox="0 0 36 31.792" enable-background="new 0 0 36 31.792" xml:space="preserve">
<g>
	<defs>
		<rect id="SVGID_1_" y="0" width="36" height="31.792"/>
	</defs>
	<clipPath id="SVGID_2_">
		<use xlink:href="#SVGID_1_"  overflow="visible"/>
	</clipPath>
	<path clip-path="url(#SVGID_2_)" fill="#40404C" d="M18.25,21.917c0.553,0,1-0.447,1-1s-0.447-1-1-1c-0.552,0-1,0.447-1,1
		S17.698,21.917,18.25,21.917"/>
	<path clip-path="url(#SVGID_2_)" fill="#40404C" d="M33,0H3C1.344,0.001,0.002,1.344,0,3v20c0.002,1.655,1.344,2.998,3,3h4.484H15
		h2.25v3.791h-4c-0.552,0-1,0.447-1,1s0.448,1,1,1h10c0.553,0,1-0.447,1-1s-0.447-1-1-1h-4V26H21h8.922H33
		c1.656-0.002,2.998-1.345,3-3V3C35.998,1.344,34.656,0.001,33,0 M34,23c-0.001,0.552-0.448,0.999-1,1H3C2.448,24,2,23.552,2,23v-5
		h32V23z M34,16H2V3c0-0.552,0.448-1,1-1h30c0.552,0,0.999,0.448,1,1V16z"/>
</g>
</svg>
