<?xml version="1.0" encoding="utf-8"?>
<!-- Generator: Adobe Illustrator 24.1.3, SVG Export Plug-In . SVG Version: 6.00 Build 0)  -->
<svg version="1.1" id="레이어_1" xmlns="http://www.w3.org/2000/svg" xmlns:xlink="http://www.w3.org/1999/xlink" x="0px"
	 y="0px" viewBox="0 0 18 18" style="enable-background:new 0 0 18 18;" xml:space="preserve">
<style type="text/css">
	.st0{fill:#2A2A2A;}
</style>
<g>
	<path class="st0" d="M16,10V0h-2v10h-2v6h2v2h2v-2h2v-6H16z M16,14h-2v-2h2V14z"/>
	<path class="st0" d="M4,10V0H2v10H0v6h2v2h2v-2h2v-6H4z M4,14H2v-2h2V14z"/>
	<g>
		<path class="st0" d="M10,2V0H8v2H6v6h2v10h2V8h2V2H10z M10,6H8V4h2V6z"/>
	</g>
</g>
</svg>
