<?xml version="1.0" encoding="utf-8"?>
<!-- Generator: Adobe Illustrator 24.1.3, SVG Export Plug-In . SVG Version: 6.00 Build 0)  -->
<svg version="1.1" id="레이어_1" xmlns="http://www.w3.org/2000/svg" xmlns:xlink="http://www.w3.org/1999/xlink" x="0px"
	 y="0px" viewBox="0 0 49 49" style="enable-background:new 0 0 49 49;" xml:space="preserve">
<g>
	<path d="M42.9,11.9L42.9,11.9c-0.8-0.8-2.2-0.8-3,0L22.6,29.2c-0.1,0.1-0.2,0.2-0.3,0.4c0,0,0,0,0,0.1c0,0,0,0.1-0.1,0.1
		c0,0,0,0.1-0.1,0.1c0,0,0,0.1,0,0.1c0,0,0,0.1-0.1,0.1c0,0,0,0,0,0c-0.1,0.2-0.1,0.5-0.1,0.7v10.6c0,1.1,1,2.1,2.1,2.1l0,0
		c1.2,0,2.1-0.9,2.1-2.1v-9.9l16.7-16.7C43.7,14.1,43.7,12.7,42.9,11.9z"/>
	<path d="M37.4,6.1c-0.8-0.8-2.2-0.8-3,0L18.9,21.6l-9.8-9.8c-0.8-0.8-2.2-0.8-3,0l0,0c-0.8,0.8-0.8,2.1,0,3l11.2,11.2
		c0.4,0.4,0.8,0.6,1.3,0.6c0.6,0.1,1.2-0.1,1.7-0.6l17-17C38.2,8.3,38.2,6.9,37.4,6.1z"/>
	<path d="M18,15.2c0.8,0.8,2,0.7,2.9-0.1l0,0c0.8-0.8,0.8-2.1,0-3l-6.1-6.1c-0.8-0.8-2.2-0.8-3,0l0,0c-0.8,0.8-0.8,2.1,0,3L18,15.2z
		"/>
</g>
</svg>
