<?xml version="1.0" encoding="utf-8"?>
<!-- Generator: Adobe Illustrator 24.1.3, SVG Export Plug-In . SVG Version: 6.00 Build 0)  -->
<svg version="1.1" id="레이어_1" xmlns="http://www.w3.org/2000/svg" xmlns:xlink="http://www.w3.org/1999/xlink" x="0px"
	 y="0px" viewBox="0 0 74 74" style="enable-background:new 0 0 74 74;" xml:space="preserve">
<style type="text/css">
	.st0{fill:#FED130;}
</style>
<g>
	<g>
		<path d="M43.7,4c0,0,0-0.1,0-0.1l-1-3.2c0,0,0-0.1,0-0.1c0-0.1,0-0.1,0.1-0.2c0.1,0,0.1-0.1,0.2-0.1s0.2,0,0.2,0
			c0.1,0,0.2,0,0.2,0c0.1,0,0.1,0.1,0.2,0.1s0.1,0.1,0.1,0.2l0.7,2.5l1.7-2c0-0.1,0.1-0.1,0.2-0.1c0,0,0.1,0,0.2,0
			c0.1,0,0.1,0,0.2,0.1c0.1,0,0.1,0.1,0.2,0.1S47,1.4,47,1.4s0,0.1,0,0.2c0,0,0,0,0,0c0,0,0,0,0,0l-2.2,2.4c0,0,0,0.1,0,0.1l-0.4,2
			c0,0.1-0.1,0.2-0.2,0.2s-0.2,0-0.4,0c-0.1,0-0.2-0.1-0.3-0.2c-0.1-0.1-0.1-0.2-0.1-0.3L43.7,4z"/>
		<path d="M48.5,4.3l1.1,0.4c0.1,0,0.2,0.1,0.2,0.2s0,0.2,0,0.3c0,0.1-0.1,0.2-0.2,0.2c-0.1,0.1-0.2,0.1-0.3,0l-1.1-0.4l-0.6,1.5
			l2.1,0.8c0.1,0,0.2,0.1,0.2,0.2c0,0.1,0,0.2,0,0.3c0,0.1-0.1,0.2-0.2,0.3c-0.1,0.1-0.2,0.1-0.3,0.1l-2.7-1c-0.1,0-0.2-0.1-0.3-0.2
			c-0.1-0.1-0.1-0.2,0-0.3l1.8-4.9c0-0.1,0.1-0.2,0.2-0.2c0.1,0,0.2,0,0.3,0l2.7,1c0.1,0,0.2,0.1,0.2,0.2c0,0.1,0,0.2,0,0.3
			c0,0.1-0.1,0.2-0.2,0.3c-0.1,0.1-0.2,0.1-0.3,0L49,2.8L48.5,4.3z"/>
		<path d="M50.6,8.8c-0.1-0.1-0.2-0.1-0.2-0.2s-0.1-0.2,0-0.3l2.4-4.6c0-0.1,0.1-0.2,0.3-0.1c0.1,0,0.2,0,0.3,0.1
			c0.1,0.1,0.2,0.1,0.3,0.2c0.1,0.1,0.1,0.2,0,0.3l-2.2,4.1l1.7,0.9c0.1,0.1,0.1,0.1,0.1,0.2c0,0.1,0,0.2-0.1,0.3
			c0,0.1-0.1,0.2-0.2,0.2c-0.1,0.1-0.2,0.1-0.3,0L50.6,8.8z"/>
		<path d="M53.9,10.7c-0.1-0.1-0.2-0.1-0.2-0.3s0-0.2,0-0.3l3-4.3c0.1-0.1,0.2-0.1,0.3-0.1c0.1,0,0.2,0.1,0.3,0.1
			c0.1,0.1,0.2,0.2,0.3,0.3c0.1,0.1,0.1,0.2,0,0.3l-2.7,3.8l1.6,1.1c0.1,0.1,0.1,0.1,0.1,0.3s0,0.2-0.1,0.3
			c-0.1,0.1-0.2,0.2-0.2,0.2s-0.2,0-0.3,0L53.9,10.7z"/>
		<path d="M57.9,13.9c-0.2-0.2-0.4-0.4-0.5-0.6s-0.2-0.4-0.2-0.6s0-0.4,0.1-0.7c0.1-0.2,0.2-0.5,0.5-0.7l1.5-1.6
			c0.2-0.3,0.5-0.4,0.7-0.5s0.5-0.2,0.7-0.1S61,9,61.3,9.1c0.2,0.1,0.4,0.3,0.6,0.4c0.2,0.2,0.3,0.4,0.5,0.6
			c0.1,0.2,0.2,0.4,0.2,0.6s0,0.4-0.1,0.7s-0.2,0.5-0.5,0.7l-1.5,1.6c-0.2,0.3-0.5,0.4-0.7,0.5s-0.5,0.1-0.7,0.1
			c-0.2,0-0.4-0.1-0.7-0.2C58.3,14.2,58.1,14,57.9,13.9z M61.3,11.4c0.2-0.2,0.3-0.5,0.3-0.7s-0.1-0.4-0.3-0.6s-0.4-0.3-0.6-0.3
			c-0.2,0-0.4,0.1-0.6,0.4l-1.5,1.6c-0.2,0.2-0.3,0.5-0.3,0.7c0,0.2,0.1,0.4,0.3,0.6c0.2,0.2,0.4,0.3,0.6,0.3s0.4-0.1,0.6-0.4
			L61.3,11.4z"/>
		<path d="M63.1,19.3c-0.1,0-0.3,0-0.4,0c-0.1-0.1-0.2-0.2-0.3-0.3s-0.2-0.3-0.2-0.4c0-0.1,0-0.3,0.1-0.4l1.4-1.7l-2,0.9
			c-0.1,0-0.2,0-0.4,0c-0.1-0.1-0.2-0.2-0.3-0.3s-0.2-0.3-0.2-0.4s0-0.3,0.1-0.4l3.1-4.3c0,0,0-0.1,0.1-0.1c0.1,0,0.1-0.1,0.2-0.1
			s0.1,0,0.2,0.1s0.1,0.1,0.2,0.1c0.1,0.1,0.1,0.1,0.2,0.2c0.1,0.1,0.1,0.1,0.1,0.2s0,0.1-0.1,0.2l-2.7,3.6l2.6-1.1
			c0.1,0,0.2,0,0.3,0s0.2,0.1,0.3,0.2s0.1,0.2,0.1,0.3c0,0.1,0,0.2-0.1,0.3l-1.8,2.2l4.2-1.6c0.1,0,0.1,0,0.2,0
			c0.1,0,0.1,0.1,0.2,0.1c0,0.1,0.1,0.1,0.1,0.2c0,0.1,0.1,0.1,0.1,0.2c0,0.1,0,0.1,0,0.2c0,0.1-0.1,0.1-0.1,0.1c0,0-0.1,0-0.1,0
			L63.1,19.3z"/>
		<path d="M69.7,20.5c0.1,0,0.2,0,0.3,0c0.1,0.1,0.2,0.1,0.2,0.3l1.1,2.5c0.1,0.1,0,0.2,0,0.3c-0.1,0.1-0.2,0.1-0.3,0.2
			c-0.1,0-0.2,0.1-0.3,0.1s-0.2-0.1-0.2-0.2l-0.9-2l-1.5,0.6l0.5,1.1c0,0.1,0,0.2,0,0.3s-0.1,0.1-0.2,0.2c-0.1,0-0.2,0-0.3,0
			c-0.1,0-0.2-0.1-0.2-0.2l-0.5-1.1l-2,0.9c-0.1,0-0.2,0-0.3,0s-0.2-0.2-0.2-0.3s-0.1-0.2-0.1-0.4s0.1-0.2,0.2-0.3L69.7,20.5z"/>
		<path d="M71.5,24.7c0.1,0,0.2,0,0.3,0.1s0.1,0.2,0.2,0.3c0,0.1,0.1,0.2,0,0.4s-0.1,0.2-0.2,0.2l-4.9,1.6c-0.1,0-0.2,0-0.3-0.1
			c-0.1-0.1-0.2-0.2-0.2-0.3c0-0.1-0.1-0.3,0-0.4c0-0.1,0.1-0.2,0.2-0.2L71.5,24.7z"/>
		<path d="M67.6,31.6c0-0.1,0-0.2,0-0.4c0-0.1,0.1-0.2,0.2-0.3l2.8-2.4l-3.1,0.7c-0.1,0-0.2,0-0.3-0.1c-0.1-0.1-0.1-0.2-0.2-0.3
			c0-0.1,0-0.3,0-0.4c0-0.1,0.1-0.2,0.2-0.2l5.1-1.1c0.1,0,0.2,0,0.3,0.1c0.1,0.1,0.1,0.2,0.2,0.3c0,0.1,0,0.2,0,0.3s0,0.1,0,0.2
			c0,0.1-0.1,0.1-0.1,0.2s-0.1,0.1-0.2,0.2l-2.6,2.1l3.1-0.7c0.1,0,0.2,0,0.3,0.1c0.1,0.1,0.1,0.2,0.2,0.3c0,0.1,0,0.3,0,0.4
			c0,0.1-0.1,0.2-0.2,0.2L68.1,32c-0.1,0-0.2,0-0.3-0.1C67.7,31.8,67.6,31.7,67.6,31.6z"/>
		<path d="M72.1,35.3c0.1,0,0.2,0,0.3-0.1c0.1,0,0.2-0.1,0.2-0.1c0.1-0.1,0.1-0.2,0.2-0.3c0-0.1,0.1-0.3,0.1-0.4
			c0-0.3-0.1-0.5-0.3-0.6c-0.2-0.1-0.4-0.2-0.7-0.2l-2.2,0.1c-0.3,0-0.5,0.1-0.7,0.3c-0.1,0.2-0.2,0.4-0.2,0.6
			c0,0.3,0.1,0.5,0.3,0.6s0.4,0.2,0.7,0.2l0.5,0l0-0.7c0-0.1,0-0.2,0.1-0.3s0.2-0.1,0.3-0.1c0.1,0,0.2,0,0.3,0.1s0.1,0.1,0.1,0.2
			l0.1,1.4c0,0.1,0,0.2-0.1,0.3c-0.1,0.1-0.1,0.1-0.2,0.1l-0.9,0.1c-0.3,0-0.6,0-0.9-0.1s-0.4-0.2-0.6-0.4c-0.2-0.2-0.3-0.3-0.3-0.6
			s-0.1-0.5-0.2-0.7c0-0.3,0-0.5,0.1-0.8c0.1-0.2,0.2-0.4,0.3-0.6s0.3-0.3,0.5-0.4s0.5-0.2,0.8-0.2l2.2-0.1c0.3,0,0.6,0,0.9,0.1
			s0.4,0.2,0.6,0.4c0.2,0.2,0.3,0.3,0.3,0.6c0.1,0.2,0.1,0.5,0.1,0.7c0,0.3,0,0.5-0.1,0.8c-0.1,0.2-0.1,0.4-0.3,0.6
			c-0.1,0.2-0.3,0.3-0.5,0.4c-0.2,0.1-0.4,0.2-0.6,0.2c-0.2,0-0.3,0-0.4-0.1c-0.1-0.1-0.1-0.2-0.1-0.4c0-0.1,0-0.3,0.1-0.4
			C71.9,35.4,72,35.3,72.1,35.3z"/>
		<path d="M71.3,38.7l-0.1,1.2c0,0.1-0.1,0.2-0.2,0.2c-0.1,0-0.2,0.1-0.3,0.1c-0.1,0-0.2,0-0.3-0.1c-0.1-0.1-0.1-0.1-0.1-0.3
			l0.1-1.2l-1.6-0.1l-0.2,2.3c0,0.1-0.1,0.2-0.2,0.2c-0.1,0-0.2,0.1-0.3,0.1c-0.1,0-0.2,0-0.3-0.1c-0.1-0.1-0.1-0.2-0.1-0.3l0.2-2.8
			c0-0.1,0-0.2,0.1-0.3s0.2-0.1,0.3-0.1l5.2,0.4c0.1,0,0.2,0.1,0.2,0.2s0.1,0.2,0.1,0.3l-0.2,2.8c0,0.1-0.1,0.2-0.2,0.2
			c-0.1,0-0.2,0.1-0.3,0.1c-0.1,0-0.2,0-0.3-0.1c-0.1-0.1-0.1-0.2-0.1-0.3l0.2-2.3L71.3,38.7z"/>
		<path d="M73.1,42.7c0.1,0,0.2,0.1,0.2,0.1s0.1,0.2,0,0.3L73,44.7c-0.1,0.3-0.1,0.5-0.2,0.7s-0.2,0.4-0.4,0.5s-0.4,0.2-0.6,0.3
			c-0.2,0-0.5,0-0.8,0c-0.4-0.1-0.8-0.3-1-0.5s-0.3-0.5-0.3-0.8l-2.1,0.6c0,0-0.1,0-0.1,0s0,0-0.1,0c-0.1,0-0.1,0-0.2-0.1
			s-0.1-0.1-0.1-0.2S67,45,66.9,44.9c0-0.1,0-0.2,0-0.2c0-0.1,0.1-0.1,0.1-0.2c0.1,0,0.1-0.1,0.2-0.1l2.4-0.6l0.1-0.7l-2-0.4
			c-0.1,0-0.2-0.1-0.2-0.2s0-0.2,0-0.4c0-0.1,0.1-0.2,0.2-0.3s0.2-0.1,0.3-0.1L73.1,42.7z M72.3,43.6l-1.7-0.4l-0.2,0.9
			c-0.1,0.3,0,0.5,0.1,0.7c0.1,0.2,0.3,0.3,0.6,0.4s0.5,0,0.7-0.1c0.2-0.1,0.3-0.3,0.3-0.6L72.3,43.6z"/>
		<path d="M62.2,58.6C62.2,58.6,62.2,58.6,62.2,58.6l3.3,0.7c0,0,0.1,0,0.1,0c0.1,0,0.1,0.1,0.1,0.2s0,0.1,0,0.2
			c0,0.1-0.1,0.2-0.1,0.2c0,0.1-0.1,0.1-0.1,0.2c-0.1,0.1-0.1,0.1-0.2,0.1c-0.1,0-0.1,0-0.2,0l-2.5-0.6l0.9,2.5c0,0.1,0,0.1,0,0.2
			s0,0.1-0.1,0.2c0,0-0.1,0.1-0.2,0.1c-0.1,0-0.1,0.1-0.2,0.1s-0.2,0-0.2,0s-0.1,0-0.2-0.1c0,0,0,0,0,0s0,0,0,0l-1-3.1
			c0,0,0-0.1-0.1-0.1L60,58c-0.1-0.1-0.1-0.2-0.1-0.3c0-0.1,0.1-0.2,0.2-0.3s0.2-0.2,0.3-0.2s0.2,0,0.3,0L62.2,58.6z"/>
		<path d="M59.6,62.6l-0.9,0.8c-0.1,0.1-0.2,0.1-0.3,0.1c-0.1,0-0.2-0.1-0.3-0.2C58.1,63.2,58,63.1,58,63s0-0.2,0.1-0.3L59,62
			l-1-1.2l-1.7,1.5c-0.1,0.1-0.2,0.1-0.3,0c-0.1,0-0.2-0.1-0.3-0.2c-0.1-0.1-0.1-0.2-0.1-0.3s0-0.2,0.1-0.3l2.2-1.8
			c0.1-0.1,0.2-0.1,0.3-0.1s0.2,0,0.3,0.1l3.3,4c0.1,0.1,0.1,0.2,0,0.3c0,0.1-0.1,0.2-0.2,0.3L59.4,66c-0.1,0.1-0.2,0.1-0.3,0.1
			c-0.1,0-0.2-0.1-0.3-0.2c-0.1-0.1-0.1-0.2-0.1-0.3c0-0.1,0-0.2,0.1-0.3l1.7-1.5L59.6,62.6z"/>
		<path d="M54.6,62.3c0.1-0.1,0.2-0.1,0.3-0.1s0.2,0,0.3,0.1l2.8,4.4c0.1,0.1,0.1,0.2,0,0.3s-0.2,0.2-0.3,0.3
			c-0.1,0.1-0.2,0.1-0.3,0.1s-0.2,0-0.3-0.1l-2.5-3.9l-1.6,1c-0.1,0.1-0.2,0.1-0.3,0c-0.1-0.1-0.2-0.1-0.2-0.2
			c-0.1-0.1-0.1-0.2-0.1-0.3c0-0.1,0-0.2,0.1-0.3L54.6,62.3z"/>
		<path d="M51.3,64.2c0.1-0.1,0.2-0.1,0.3-0.1s0.2,0.1,0.2,0.2l2.3,4.7c0,0.1,0,0.2,0,0.3c-0.1,0.1-0.2,0.2-0.3,0.2
			c-0.1,0.1-0.2,0.1-0.3,0.1c-0.1,0-0.2-0.1-0.3-0.2l-2-4.2l-1.8,0.8c-0.1,0.1-0.2,0-0.3,0c-0.1-0.1-0.2-0.2-0.2-0.3
			s-0.1-0.2-0.1-0.3c0-0.1,0-0.2,0.2-0.2L51.3,64.2z"/>
		<path d="M46.6,66.1c0.3-0.1,0.5-0.1,0.7-0.1c0.2,0,0.5,0,0.7,0.1c0.2,0.1,0.4,0.2,0.5,0.4s0.3,0.4,0.4,0.8l0.7,2.1
			c0.1,0.3,0.2,0.6,0.1,0.8s-0.1,0.5-0.2,0.7s-0.3,0.3-0.5,0.5c-0.2,0.1-0.4,0.2-0.7,0.3c-0.3,0.1-0.5,0.1-0.7,0.1
			c-0.2,0-0.5,0-0.7-0.1s-0.4-0.2-0.6-0.4c-0.2-0.2-0.3-0.4-0.4-0.8l-0.7-2.1c-0.1-0.3-0.2-0.6-0.1-0.8s0.1-0.5,0.2-0.7
			c0.1-0.2,0.3-0.3,0.5-0.5S46.4,66.2,46.6,66.1z M47.1,70.3c0.1,0.3,0.2,0.5,0.4,0.6s0.4,0.1,0.7,0c0.3-0.1,0.4-0.2,0.5-0.4
			s0.1-0.4,0-0.7L48,67.6c-0.1-0.3-0.2-0.5-0.4-0.6c-0.2-0.1-0.4-0.1-0.7,0s-0.4,0.2-0.5,0.4c-0.1,0.2-0.1,0.4,0,0.7L47.1,70.3z"/>
		<path d="M39.3,68c0-0.1,0.1-0.2,0.2-0.3c0.1-0.1,0.3-0.1,0.4-0.1s0.3,0,0.4,0s0.2,0.1,0.3,0.2l0.8,2.1l0.2-2.2
			c0-0.1,0.1-0.2,0.2-0.3c0.1-0.1,0.3-0.1,0.4-0.1s0.3,0,0.4,0s0.2,0.1,0.3,0.2l2.2,4.8c0,0,0,0.1,0,0.1c0,0.1,0,0.1,0,0.2
			c0,0.1-0.1,0.1-0.1,0.2c-0.1,0.1-0.1,0.1-0.2,0.1c-0.1,0-0.2,0.1-0.2,0.1c-0.1,0-0.2,0-0.2,0s-0.1-0.1-0.2-0.1l-1.8-4.1l-0.3,2.8
			c0,0.1-0.1,0.2-0.2,0.2c-0.1,0.1-0.2,0.1-0.3,0.1c-0.1,0-0.2,0-0.3,0s-0.2-0.1-0.2-0.2l-1-2.7l-0.7,4.5c0,0.1,0,0.1-0.1,0.2
			s-0.1,0.1-0.2,0.1c-0.1,0-0.2,0-0.2,0c-0.1,0-0.2,0-0.2-0.1s-0.1-0.1-0.2-0.1s-0.1-0.1-0.1-0.2c0,0,0-0.1,0-0.1L39.3,68z"/>
		<path d="M35.1,73.2c0,0.1-0.1,0.2-0.2,0.2s-0.2,0.1-0.3,0.1l-2.8-0.3c-0.1,0-0.2-0.1-0.2-0.2c0-0.1-0.1-0.2,0-0.3
			c0-0.1,0-0.2,0.1-0.3c0.1-0.1,0.1-0.1,0.3-0.1l2.2,0.2l0.2-1.6L33,70.8c-0.1,0-0.2-0.1-0.2-0.2c0-0.1-0.1-0.2,0-0.3
			c0-0.1,0-0.2,0.1-0.3C32.9,70,33,70,33.1,70l1.2,0.1l0.2-2.2c0-0.1,0.1-0.2,0.2-0.2c0.1,0,0.2-0.1,0.4-0.1c0.1,0,0.3,0.1,0.3,0.1
			s0.2,0.2,0.1,0.3L35.1,73.2z"/>
		<path d="M30.5,72.7c0,0.1-0.1,0.2-0.2,0.2s-0.2,0-0.4,0c-0.1,0-0.2-0.1-0.3-0.1c-0.1-0.1-0.1-0.2-0.1-0.3l1-5.1
			c0-0.1,0.1-0.2,0.2-0.2c0.1,0,0.2,0,0.4,0c0.1,0,0.2,0.1,0.3,0.2c0.1,0.1,0.1,0.2,0.1,0.3L30.5,72.7z"/>
		<path d="M26.4,65.9c0.1,0,0.2,0.1,0.3,0.2s0.1,0.2,0.2,0.3l0.7,3.6l1-3.1c0-0.1,0.1-0.2,0.2-0.2c0.1,0,0.2,0,0.4,0
			c0.1,0,0.2,0.1,0.3,0.2c0.1,0.1,0.1,0.2,0.1,0.3l-1.5,5c0,0.1-0.1,0.2-0.2,0.2c-0.1,0-0.2,0-0.4,0c-0.1,0-0.2-0.1-0.2-0.1
			S27,72.2,27,72.1c0-0.1-0.1-0.1-0.1-0.2s-0.1-0.2-0.1-0.3l-0.6-3.3l-1,3.1c0,0.1-0.1,0.2-0.2,0.2c-0.1,0-0.2,0-0.4,0
			c-0.1,0-0.2-0.1-0.3-0.2s-0.1-0.2-0.1-0.3l1.5-5c0-0.1,0.1-0.2,0.2-0.2C26.2,65.8,26.3,65.8,26.4,65.9z"/>
		<path d="M20.9,68c0,0.1-0.1,0.2-0.1,0.3c0,0.1,0,0.2,0,0.3s0.1,0.2,0.1,0.3c0.1,0.1,0.2,0.2,0.3,0.2c0.2,0.1,0.5,0.1,0.7,0.1
			c0.2-0.1,0.4-0.3,0.5-0.5l1-2c0.1-0.3,0.2-0.5,0.1-0.7c-0.1-0.2-0.2-0.3-0.5-0.5c-0.2-0.1-0.5-0.1-0.6-0.1
			c-0.2,0.1-0.4,0.3-0.5,0.5l-0.2,0.4l0.6,0.3c0.1,0.1,0.1,0.1,0.2,0.2s0,0.2,0,0.3c0,0.1-0.1,0.2-0.2,0.2c-0.1,0.1-0.2,0.1-0.3,0
			l-1.2-0.6c-0.1-0.1-0.1-0.1-0.2-0.2c0-0.1,0-0.2,0-0.3l0.4-0.8c0.1-0.3,0.3-0.5,0.5-0.7c0.2-0.2,0.4-0.3,0.6-0.3
			c0.2-0.1,0.4-0.1,0.7,0s0.5,0.1,0.7,0.2c0.2,0.1,0.5,0.3,0.6,0.4s0.3,0.3,0.4,0.5c0.1,0.2,0.1,0.4,0.1,0.7s-0.1,0.5-0.2,0.8l-1,2
			c-0.1,0.3-0.3,0.5-0.5,0.7s-0.4,0.3-0.6,0.3c-0.2,0.1-0.4,0.1-0.7,0c-0.2,0-0.5-0.1-0.7-0.2c-0.3-0.1-0.5-0.3-0.6-0.4
			c-0.2-0.2-0.3-0.3-0.4-0.5c-0.1-0.2-0.1-0.4-0.1-0.6s0-0.4,0.1-0.6c0.1-0.2,0.2-0.3,0.3-0.3c0.1,0,0.2,0,0.4,0.1
			c0.1,0.1,0.2,0.1,0.3,0.2C21,67.8,21,67.9,20.9,68z"/>
		<path d="M18.4,65.6l-1-0.7c-0.1-0.1-0.1-0.1-0.1-0.2s0-0.2,0.1-0.3c0-0.1,0.1-0.1,0.2-0.2c0.1,0,0.2,0,0.3,0l1,0.7l0.9-1.3
			l-1.9-1.3c-0.1-0.1-0.1-0.1-0.1-0.3c0-0.1,0-0.2,0.1-0.3c0.1-0.1,0.1-0.2,0.2-0.2s0.2,0,0.3,0l2.4,1.6c0.1,0.1,0.2,0.2,0.2,0.3
			s0,0.2,0,0.3L18.1,68c-0.1,0.1-0.1,0.1-0.3,0.1s-0.2,0-0.3-0.1l-2.4-1.6c-0.1-0.1-0.1-0.2-0.1-0.3s0-0.2,0.1-0.3
			c0.1-0.1,0.1-0.2,0.3-0.2s0.2,0,0.3,0l1.9,1.3L18.4,65.6z"/>
		<path d="M14,65.2c-0.1,0.1-0.1,0.1-0.2,0.1s-0.2,0-0.3-0.1l-1.2-1.1c-0.2-0.2-0.4-0.4-0.5-0.5s-0.2-0.4-0.3-0.6c0-0.2,0-0.4,0-0.7
			c0.1-0.2,0.2-0.5,0.4-0.7c0.3-0.3,0.6-0.5,0.9-0.6c0.3-0.1,0.6,0,0.9,0.1l0.5-2.2c0,0,0,0,0-0.1s0,0,0,0c0,0,0.1-0.1,0.2-0.1
			c0.1,0,0.1,0,0.2,0s0.2,0,0.2,0s0.1,0.1,0.2,0.1s0.1,0.1,0.1,0.2c0,0.1,0,0.2,0,0.2l-0.6,2.4l0.5,0.5l1.4-1.6
			c0.1-0.1,0.2-0.1,0.3-0.1c0.1,0,0.2,0.1,0.3,0.2c0.1,0.1,0.2,0.2,0.2,0.3s0,0.2,0,0.3L14,65.2z M13.6,64l1.1-1.3l-0.7-0.6
			c-0.2-0.2-0.4-0.3-0.6-0.3s-0.4,0.1-0.6,0.3s-0.3,0.5-0.3,0.7s0.1,0.4,0.3,0.6L13.6,64z"/>
		<path d="M5.6,47.9C5.5,47.9,5.5,47.9,5.6,47.9l-2.3,2.5c0,0-0.1,0-0.1,0.1c-0.1,0-0.1,0-0.2,0c-0.1,0-0.1-0.1-0.2-0.1
			c-0.1,0-0.1-0.1-0.2-0.2c0-0.1-0.1-0.1-0.1-0.2c0-0.1,0-0.2,0-0.2c0,0,0-0.1,0.1-0.2l1.8-1.9l-2.6-0.4c-0.1,0-0.1,0-0.2-0.1
			c0,0-0.1-0.1-0.1-0.2c0-0.1,0-0.1,0-0.2c0-0.1,0-0.2,0-0.2s0-0.2,0.1-0.2c0-0.1,0.1-0.1,0.1-0.1c0,0,0,0,0,0s0,0,0.1,0l3.2,0.6
			c0,0,0.1,0,0.1,0l1.9-0.7c0.1,0,0.2,0,0.3,0.1c0.1,0.1,0.2,0.2,0.2,0.3c0,0.1,0.1,0.2,0,0.4s-0.1,0.2-0.2,0.2L5.6,47.9z"/>
		<path d="M3.4,43.7l-0.2-1.2c0-0.1,0-0.2,0.1-0.3s0.2-0.1,0.3-0.1c0.1,0,0.2,0,0.3,0c0.1,0,0.2,0.1,0.2,0.2l0.2,1.2l1.6-0.3L5.3,41
			c0-0.1,0-0.2,0.1-0.3c0.1-0.1,0.2-0.1,0.3-0.1c0.1,0,0.2,0,0.3,0s0.2,0.1,0.2,0.2l0.5,2.8c0,0.1,0,0.2,0,0.3
			c0,0.1-0.1,0.2-0.2,0.2l-5.1,1c-0.1,0-0.2,0-0.3-0.1C1.1,44.9,1,44.8,1,44.7l-0.5-2.8c0-0.1,0-0.2,0.1-0.3s0.2-0.1,0.3-0.1
			c0.1,0,0.2,0,0.3,0c0.1,0,0.2,0.1,0.2,0.2l0.4,2.2L3.4,43.7z"/>
		<path d="M6.1,39.5c0,0.1,0,0.2-0.1,0.3C6,39.9,5.9,40,5.8,40l-5.2,0.3c-0.1,0-0.2,0-0.3-0.2c-0.1-0.1-0.1-0.2-0.1-0.3
			c0-0.1,0-0.3,0.1-0.4s0.1-0.2,0.2-0.2L5.2,39L5,37c0-0.1,0-0.2,0.1-0.2c0.1,0,0.2-0.1,0.3-0.1c0.1,0,0.2,0,0.3,0.1
			C5.9,36.8,6,36.9,6,37L6.1,39.5z"/>
		<path d="M6,35.7c0,0.1,0,0.2-0.1,0.3s-0.2,0.1-0.3,0.1l-5.2-0.3c-0.1,0-0.2-0.1-0.2-0.2s-0.1-0.2,0-0.4s0-0.2,0.1-0.3
			c0.1-0.1,0.1-0.2,0.3-0.2L5.1,35l0.1-2c0-0.1,0.1-0.2,0.2-0.2c0.1,0,0.2-0.1,0.3,0c0.1,0,0.2,0,0.3,0.1C6.2,33,6.2,33,6.2,33.2
			L6,35.7z"/>
		<path d="M6.7,30.6c-0.1,0.3-0.1,0.5-0.2,0.7c-0.1,0.2-0.3,0.4-0.4,0.5c-0.2,0.1-0.4,0.2-0.6,0.3s-0.5,0-0.9,0l-2.2-0.4
			c-0.3-0.1-0.6-0.2-0.8-0.3S1.1,31.1,1,30.9c-0.1-0.2-0.2-0.4-0.2-0.6c0-0.2,0-0.5,0.1-0.8C0.9,29.2,1,29,1.1,28.8
			c0.1-0.2,0.3-0.4,0.4-0.5C1.7,28.1,1.9,28,2.2,28c0.3,0,0.5,0,0.9,0l2.2,0.4c0.3,0.1,0.6,0.2,0.8,0.3s0.4,0.3,0.5,0.5
			c0.1,0.2,0.2,0.4,0.2,0.6C6.7,30.1,6.7,30.4,6.7,30.6z M2.8,29c-0.3-0.1-0.5,0-0.7,0.1c-0.2,0.1-0.3,0.3-0.3,0.6
			c0,0.3,0,0.5,0.1,0.6s0.3,0.3,0.7,0.4l2.2,0.4c0.3,0.1,0.6,0,0.7-0.1s0.3-0.3,0.3-0.6c0.1-0.3,0-0.5-0.1-0.6
			c-0.1-0.2-0.3-0.3-0.6-0.4L2.8,29z"/>
		<path d="M8.6,23.4c0.1,0.1,0.1,0.2,0.1,0.3s0,0.3-0.1,0.4c-0.1,0.1-0.1,0.3-0.2,0.4c-0.1,0.1-0.2,0.1-0.3,0.1l-2.2-0.3l1.8,1.3
			c0.1,0.1,0.2,0.2,0.2,0.3s0,0.3-0.1,0.4c-0.1,0.1-0.1,0.3-0.2,0.4s-0.2,0.1-0.3,0.1l-5.3-0.4c0,0-0.1,0-0.1,0c0,0-0.1-0.1-0.1-0.1
			s0-0.1-0.1-0.2c0-0.1,0-0.1,0-0.2s0-0.1,0-0.2c0-0.1,0.1-0.1,0.1-0.2c0,0,0.1-0.1,0.2-0.1l4.5,0.4l-2.3-1.7
			c-0.1-0.1-0.1-0.1-0.1-0.3c0-0.1,0-0.2,0.1-0.3c0-0.1,0.1-0.2,0.2-0.3s0.2-0.1,0.3-0.1l2.8,0.4l-3.6-2.8c-0.1,0-0.1-0.1-0.1-0.2
			c0-0.1,0-0.1,0-0.2c0-0.1,0.1-0.1,0.1-0.2s0.1-0.1,0.2-0.2C4.1,20,4.2,20,4.3,20s0.1,0,0.2,0c0,0,0.1,0,0.1,0.1L8.6,23.4z"/>
		<path d="M6.2,17.1C6.1,17,6,16.9,6,16.8c0-0.1,0.1-0.2,0.1-0.3l1.6-2.3c0.1-0.1,0.2-0.1,0.3-0.1c0.1,0,0.2,0.1,0.3,0.1
			c0.1,0.1,0.2,0.1,0.2,0.3s0,0.2,0,0.3l-1.3,1.8l1.3,0.9l0.7-1c0.1-0.1,0.1-0.1,0.2-0.1c0.1,0,0.2,0,0.3,0.1c0.1,0,0.1,0.1,0.2,0.2
			c0,0.1,0,0.2,0,0.3l-0.7,1l1.8,1.3c0.1,0.1,0.1,0.1,0.1,0.3c0,0.1-0.1,0.2-0.1,0.3c-0.1,0.1-0.2,0.2-0.3,0.3s-0.2,0-0.3,0
			L6.2,17.1z"/>
		<path d="M8.9,13.4c-0.1-0.1-0.1-0.2-0.1-0.3s0.1-0.2,0.2-0.3c0.1-0.1,0.2-0.2,0.3-0.2s0.2,0,0.3,0l3.9,3.4
			c0.1,0.1,0.1,0.2,0.1,0.3s-0.1,0.2-0.2,0.3s-0.2,0.2-0.3,0.2c-0.1,0-0.2,0-0.3,0L8.9,13.4z"/>
		<path d="M16.8,13.2c-0.1,0.1-0.2,0.1-0.3,0.2c-0.1,0-0.2,0-0.4,0l-3.5-1.2l2.2,2.3c0.1,0.1,0.1,0.2,0.1,0.3s-0.1,0.2-0.2,0.3
			c-0.1,0.1-0.2,0.1-0.3,0.2c-0.1,0-0.2,0-0.3-0.1l-3.6-3.8c-0.1-0.1-0.1-0.2-0.1-0.3s0.1-0.2,0.2-0.3c0.1-0.1,0.1-0.1,0.2-0.2
			c0.1,0,0.1-0.1,0.2-0.1c0.1,0,0.1,0,0.2,0c0.1,0,0.2,0,0.3,0.1l3.2,1.1l-2.2-2.3c-0.1-0.1-0.1-0.2-0.1-0.3s0.1-0.2,0.2-0.3
			c0.1-0.1,0.2-0.1,0.3-0.2c0.1,0,0.2,0,0.3,0.1l3.6,3.8c0.1,0.1,0.1,0.2,0,0.3C17,13,16.9,13.1,16.8,13.2z"/>
		<path d="M17.7,7.3c-0.1-0.1-0.1-0.1-0.2-0.2C17.4,7.1,17.3,7,17.2,7c-0.1,0-0.2,0-0.3,0s-0.2,0.1-0.4,0.2
			c-0.2,0.2-0.4,0.3-0.4,0.5c0,0.2,0,0.4,0.2,0.7l1.3,1.8c0.2,0.3,0.4,0.4,0.6,0.4c0.2,0,0.4,0,0.6-0.2c0.2-0.1,0.3-0.3,0.4-0.5
			c0-0.2,0-0.4-0.2-0.7l-0.3-0.4l-0.5,0.4c-0.1,0.1-0.2,0.1-0.3,0c-0.1,0-0.2-0.1-0.2-0.2C17.6,9,17.6,9,17.6,8.8
			c0-0.1,0-0.2,0.1-0.2l1.1-0.8c0.1-0.1,0.2-0.1,0.3-0.1s0.1,0.1,0.2,0.2l0.5,0.8C20,9,20.2,9.2,20.2,9.5s0,0.5,0,0.7
			c-0.1,0.2-0.2,0.4-0.3,0.6c-0.1,0.2-0.3,0.4-0.5,0.5s-0.4,0.3-0.7,0.3c-0.2,0.1-0.5,0.1-0.7,0.1s-0.4-0.1-0.6-0.2
			s-0.4-0.3-0.6-0.6L15.5,9c-0.2-0.3-0.3-0.5-0.4-0.8c-0.1-0.3-0.1-0.5,0-0.7c0.1-0.2,0.2-0.4,0.3-0.6c0.1-0.2,0.3-0.3,0.5-0.5
			c0.2-0.2,0.5-0.3,0.7-0.3S17.1,6,17.3,6c0.2,0,0.4,0.1,0.6,0.2c0.2,0.1,0.4,0.3,0.5,0.4c0.1,0.2,0.2,0.3,0.1,0.4
			c0,0.1-0.1,0.2-0.3,0.3c-0.1,0.1-0.2,0.1-0.3,0.2C17.8,7.5,17.7,7.4,17.7,7.3z"/>
		<path d="M21,6.3L22,5.8c0.1-0.1,0.2-0.1,0.3,0s0.2,0.1,0.2,0.2c0,0.1,0.1,0.2,0,0.3s-0.1,0.2-0.2,0.2l-1.1,0.6l0.7,1.4l2-1
			c0.1-0.1,0.2,0,0.3,0c0.1,0.1,0.2,0.1,0.2,0.3c0,0.1,0.1,0.2,0.1,0.3c0,0.1-0.1,0.2-0.2,0.2L22,9.6c-0.1,0.1-0.2,0.1-0.3,0.1
			s-0.2-0.1-0.2-0.1l-2.4-4.6c0-0.1,0-0.2,0-0.3c0.1-0.1,0.1-0.2,0.2-0.2l2.5-1.3c0.1,0,0.2,0,0.3,0c0.1,0.1,0.2,0.1,0.2,0.2
			c0.1,0.1,0.1,0.2,0.1,0.3s-0.1,0.2-0.1,0.2l-2,1L21,6.3z"/>
		<path d="M23.5,2.7c0-0.1,0-0.2,0-0.2c0-0.1,0.1-0.1,0.2-0.2l1.5-0.5c0.3-0.1,0.5-0.1,0.7-0.2c0.2,0,0.5,0,0.7,0.1
			C26.8,1.8,27,1.9,27.1,2s0.3,0.4,0.4,0.7c0.1,0.4,0.2,0.8,0.1,1.1S27.3,4.4,27,4.6l1.6,1.5c0,0,0,0,0,0.1c0,0,0,0,0,0.1
			c0,0.1,0,0.1,0,0.2c0,0.1,0,0.2-0.1,0.2c0,0.1-0.1,0.1-0.2,0.2c-0.1,0.1-0.1,0.1-0.2,0.1c-0.1,0-0.1,0-0.2,0s-0.1-0.1-0.2-0.1
			l-1.8-1.7l-0.6,0.2l0.7,2c0,0.1,0,0.2-0.1,0.3c-0.1,0.1-0.2,0.2-0.3,0.2c-0.1,0-0.2,0.1-0.4,0c-0.1,0-0.2-0.1-0.2-0.2L23.5,2.7z
			 M24.7,2.9l0.5,1.6L26,4.3c0.3-0.1,0.4-0.2,0.5-0.4s0.1-0.4,0-0.7s-0.3-0.5-0.4-0.5c-0.2-0.1-0.4-0.1-0.6,0L24.7,2.9z"/>
	</g>
	<circle class="st0" cx="35.5" cy="3.2" r="2.5"/>
	<circle class="st0" cx="67.5" cy="52.2" r="2.5"/>
	<circle class="st0" cx="8.5" cy="55.2" r="2.5"/>
</g>
</svg>
