<?xml version="1.0" encoding="utf-8"?>
<!-- Generator: Adobe Illustrator 24.1.3, SVG Export Plug-In . SVG Version: 6.00 Build 0)  -->
<svg version="1.1" id="레이어_1" xmlns="http://www.w3.org/2000/svg" xmlns:xlink="http://www.w3.org/1999/xlink" x="0px"
	 y="0px" viewBox="0 0 42 42" style="enable-background:new 0 0 42 42;" xml:space="preserve">
<style type="text/css">
	.st0{fill:#FFD031;}
	.st1{fill:#FFFFFF;}
</style>
<g>
	<circle class="st0" cx="21" cy="21" r="21"/>
	<path d="M21,2c10.48,0,19,8.52,19,19s-8.52,19-19,19S2,31.48,2,21S10.52,2,21,2 M21,0C9.4,0,0,9.4,0,21s9.4,21,21,21s21-9.4,21-21
		S32.6,0,21,0L21,0z"/>
</g>
<g>
	<polygon class="st1" points="21,11 21,21 31,21 21,21 21,31 	"/>
	<polygon points="22,10 20,10 20,20 10,20 10,22 20,22 20,32 22,32 22,22 32,22 32,20 22,20 22,10 	"/>
</g>
</svg>
